Coordinates
version=1
nRows=29
nColumns=24
inDegrees=yes

Units are S.I. units (second, meters, Newtons, ...)
Angles are in degrees.

endheader
time	pelvis_tilt	pelvis_list	pelvis_rotation	pelvis_tx	pelvis_ty	pelvis_tz	hip_flexion_r	hip_adduction_r	hip_rotation_r	knee_angle_r	ankle_angle_r	subtalar_angle_r	mtp_angle_r	hip_flexion_l	hip_adduction_l	hip_rotation_l	knee_angle_l	ankle_angle_l	subtalar_angle_l	mtp_angle_l	lumbar_extension	lumbar_bending	lumbar_rotation
      6.50000000	     15.13004156	     -6.69110241	     17.26104908	      2.52382170	      0.93772313	     -0.19056507	    -11.32995405	     13.26569697	     -7.67803844	     -8.00141087	     20.44085120	     -3.83832266	      0.00000000	      2.15735370	     -9.97762820	     11.15271532	    -67.05412737	     13.73480054	     -2.36522680	      0.00000000	    -27.91898135	     12.28559206	    -11.82652903
      6.50500000	     15.12310299	     -6.49739383	     16.85822257	      2.52966411	      0.93828510	     -0.18991144	    -11.97417452	     13.11934706	     -7.48171894	     -7.65266913	     20.59525048	     -3.50916156	      0.00000000	      2.69828253	     -9.51956393	     10.74874316	    -66.69558282	     14.21495231	     -2.45368273	      0.00000000	    -28.06078080	     11.88390373	    -11.26233010
      6.51000000	     15.04576723	     -6.31080421	     16.63335128	      2.53545057	      0.93867475	     -0.18939150	    -12.52570788	     13.00158442	     -7.42139362	     -7.27576153	     20.69151603	     -3.30670722	      0.00000000	      3.36928370	     -9.05100228	     10.55048728	    -66.30115794	     14.73655961	     -2.32869491	      0.00000000	    -28.07935167	     11.54349616	    -10.95975573
      6.51500000	     15.02310946	     -6.13946097	     16.23099270	      2.54121018	      0.93911856	     -0.18876190	    -13.12490093	     12.85576205	     -7.28659251	     -6.95515900	     20.86685461	     -2.92923976	      0.00000000	      3.91143340	     -8.62658512	     10.14903072	    -65.78561256	     15.21951163	     -2.32866477	      0.00000000	    -28.19556928	     11.16376560	    -10.40921644
      6.52000000	     15.02843461	     -5.95804418	     15.87766764	      2.54701099	      0.93957735	     -0.18815435	    -13.77086578	     12.72066261	     -7.15814555	     -6.58806249	     20.93741950	     -2.64721060	      0.00000000	      4.41109925	     -8.21499805	      9.79703671	    -65.17898476	     15.66046667	     -2.22009325	      0.00000000	    -28.31565067	     10.79140344	     -9.92643096
      6.52500000	     14.97814770	     -5.80950383	     15.56484101	      2.55272299	      0.93988374	     -0.18762412	    -14.32238999	     12.60154974	     -7.10009587	     -6.25581824	     21.04885152	     -2.32244221	      0.00000000	      4.98625059	     -7.81601628	      9.51147894	    -64.52019330	     16.13121224	     -2.06994331	      0.00000000	    -28.36467948	     10.46621477	     -9.49996518
      6.53000000	     14.93427045	     -5.67164943	     15.23585682	      2.55843918	      0.94016490	     -0.18708615	    -14.87639730	     12.48575837	     -7.03821946	     -5.92764206	     21.15297541	     -1.99114608	      0.00000000	      5.53188397	     -7.44307047	      9.20833198	    -63.77306415	     16.56755957	     -1.89555974	      0.00000000	    -28.40880422	     10.14589117	     -9.05415911
      6.53500000	     14.95443238	     -5.51278733	     14.88261732	      2.56418218	      0.94050070	     -0.18651380	    -15.50997428	     12.35725086	     -6.93967521	     -5.59103802	     21.23703792	     -1.71698446	      0.00000000	      5.96493757	     -7.08565546	      8.86728881	    -62.91776100	     16.97625574	     -1.70156401	      0.00000000	    -28.51604159	      9.80369989	     -8.59019276
      6.54000000	     14.87311259	     -5.42107019	     14.59265246	      2.56982279	      0.94061715	     -0.18603909	    -15.98671067	     12.27561451	     -6.94124616	     -5.29486412	     21.34883165	     -1.35904930	      0.00000000	      6.54281388	     -6.76026492	      8.62723279	    -62.03230487	     17.40142425	     -1.47742906	      0.00000000	    -28.49442830	      9.53482927	     -8.18793835
      6.54500000	     14.83443435	     -5.32195888	     14.24929204	      2.57549109	      0.94079279	     -0.18554617	    -16.51577721	     12.17587432	     -6.89842627	     -5.00205033	     21.42867399	     -1.00991404	      0.00000000	      7.02449159	     -6.45480969	      8.33260642	    -61.03514825	     17.76179705	     -1.25619616	      0.00000000	    -28.50939127	      9.25299003	     -7.72627673
      6.55000000	     14.80176191	     -5.22766347	     13.92870390	      2.58114477	      0.94091768	     -0.18508585	    -17.04085400	     12.08446648	     -6.85712602	     -4.72127896	     21.51120644	     -0.69294157	      0.00000000	      7.48133747	     -6.16154698	      8.07410917	    -59.95979749	     18.12987290	     -1.00824436	      0.00000000	    -28.51699658	      8.98638040	     -7.29877790
      6.55500000	     14.77329771	     -5.14268956	     13.61064642	      2.58676855	      0.94101039	     -0.18464937	    -17.55849407	     11.99740397	     -6.81352972	     -4.45533028	     21.58821380	     -0.38186022	      0.00000000	      7.91199452	     -5.88523775	      7.83272089	    -58.80297346	     18.47577665	     -0.75115656	      0.00000000	    -28.51823471	      8.73101431	     -6.87867292
      6.56000000	     14.69451335	     -5.08437061	     13.39106192	      2.59239139	      0.94096097	     -0.18428538	    -18.00606952	     11.95816476	     -6.82121402	     -4.18756483	     21.64544988	     -0.16404369	      0.00000000	      8.40724572	     -5.62348626	      7.71336972	    -57.59597412	     18.82039292	     -0.41004877	      0.00000000	    -28.42414924	      8.52799627	     -6.58880900
      6.56500000	     14.70096965	     -5.01281693	     12.99846028	      2.59797452	      0.94105962	     -0.18389066	    -18.53958958	     11.84691574	     -6.72805892	     -3.97445979	     21.72881081	      0.21014526	      0.00000000	      8.72275887	     -5.38486635	      7.42710293	    -56.25164121	     19.10797520	     -0.21493513	      0.00000000	    -28.45627381	      8.27891060	     -6.07454081
      6.57000000	     14.62614812	     -4.97111065	     12.79719798	      2.60358984	      0.94093616	     -0.18359129	    -18.97369879	     11.82140667	     -6.73085426	     -3.73218900	     21.78354798	      0.39182982	      0.00000000	      9.16015877	     -5.15527257	      7.35073779	    -54.88222531	     19.41400503	      0.14190747	      0.00000000	    -28.33245102	      8.10463129	     -5.81638466
      6.57500000	     14.68350462	     -4.89466636	     12.40645162	      2.60920159	      0.94102495	     -0.18320196	    -19.55504374	     11.70856035	     -6.61016778	     -3.53591726	     21.86467718	      0.69143309	      0.00000000	      9.34801732	     -4.94608478	      7.09051718	    -53.35953145	     19.66149595	      0.34884927	      0.00000000	    -28.38492853	      7.85182084	     -5.32319111
      6.58000000	     14.59459668	     -4.87521159	     12.21180399	      2.61478007	      0.94082825	     -0.18300711	    -19.94326904	     11.68739007	     -6.60037608	     -3.34815098	     21.90527748	      0.88317674	      0.00000000	      9.73973496	     -4.73884705	      7.07475519	    -51.82747572	     19.91458443	      0.69215735	      0.00000000	    -28.22224318	      7.71732053	     -5.08611385
      6.58500000	     14.61273454	     -4.83556065	     11.84357280	      2.62038270	      0.94080385	     -0.18270232	    -20.45284855	     11.59420601	     -6.48763229	     -3.19477828	     21.98184082	      1.18507484	      0.00000000	      9.91805862	     -4.56656263	      6.88986601	    -50.15414970	     20.10228868	      0.89564618	      0.00000000	    -28.19194546	      7.50889955	     -4.63113937
      6.59000000	     14.59569955	     -4.80494365	     11.57145156	      2.62599665	      0.94066585	     -0.18249378	    -20.91097993	     11.53482878	     -6.40515206	     -3.05004303	     22.04190296	      1.38290310	      0.00000000	     10.12334745	     -4.38948595	      6.83330570	    -48.42355526	     20.29433931	      1.16638507	      0.00000000	    -28.09485218	      7.34419938	     -4.32466943
      6.59500000	     14.58219025	     -4.78608041	     11.30465440	      2.63162244	      0.94050093	     -0.18230942	    -21.36551126	     11.48363048	     -6.31359090	     -2.91689388	     22.09204220	      1.57229706	      0.00000000	     10.29114645	     -4.23524781	      6.79677548	    -46.61712296	     20.43414533	      1.42732090	      0.00000000	    -27.98320828	      7.19586053	     -4.01247299
      6.60000000	     14.53751652	     -4.78593602	     11.08605997	      2.63730648	      0.94023675	     -0.18218249	    -21.78387998	     11.46014967	     -6.22479698	     -2.78175038	     22.15932807	      1.72838244	      0.00000000	     10.46962621	     -4.09861910	      6.82452223	    -44.75420715	     20.54052386	      1.70683971	      0.00000000	    -27.80185109	      7.08335885	     -3.76611552
      6.60500000	     14.57696795	     -4.77331545	     10.78092326	      2.64293572	      0.94010454	     -0.18201474	    -22.27463443	     11.39380683	     -6.08712316	     -2.70093781	     22.18049534	      1.91424202	      0.00000000	     10.48632984	     -3.98343448	      6.79847722	    -42.77719258	     20.57111152	      1.91333052	      0.00000000	    -27.74269011	      6.93688961	     -3.40251806
      6.61000000	     14.56460118	     -4.78268427	     10.53445992	      2.64865147	      0.93983146	     -0.18191463	    -22.70571307	     11.35910744	     -5.96365650	     -2.62368316	     22.23618948	      2.06887931	      0.00000000	     10.53598903	     -3.88241666	      6.85147172	    -40.75430828	     20.59608447	      2.11903174	      0.00000000	    -27.58807295	      6.83436467	     -3.14995512
      6.61500000	     14.56752116	     -4.80987570	     10.28554605	      2.65437962	      0.93954464	     -0.18182853	    -23.14520242	     11.33655812	     -5.82376685	     -2.56009304	     22.27307938	      2.21752430	      0.00000000	     10.53349481	     -3.81448373	      6.92604010	    -38.67184056	     20.54454515	      2.31235004	      0.00000000	    -27.44210232	      6.74964240	     -2.87499331
      6.62000000	     14.97376966	     -5.03028372	      9.88818162	      2.65841843	      0.93964088	     -0.18158286	    -23.76468388	     11.46863756	     -5.29910901	     -2.76998750	     22.28866785	      2.13027613	      0.00000000	     10.23295238	     -4.04910132	      6.88498472	    -36.62356523	     20.35555864	      2.54951473	      0.00000000	    -31.19959030	      7.14637213	     -1.62033286
      6.62500000	     14.91348196	     -5.10946757	      9.69103209	      2.66414977	      0.93920430	     -0.18162797	    -24.10075079	     11.48613467	     -5.21602350	     -2.76421304	     22.32923861	      2.35407690	      0.00000000	     10.25168256	     -4.02130123	      7.08653017	    -34.46713349	     20.11418275	      2.59479538	      0.00000000	    -31.20646776	      7.14618393	     -1.33620459
      6.63000000	     14.97510996	     -5.21293784	      9.42534800	      2.66986398	      0.93884849	     -0.18155458	    -24.56049532	     11.51363419	     -5.00163496	     -2.78180785	     22.37335954	      2.51464709	      0.00000000	     10.09518583	     -4.08308140	      7.19610216	    -32.26621006	     19.88277374	      2.71145109	      0.00000000	    -31.36996320	      7.14812355	     -0.96377998
      6.63500000	     15.05042415	     -5.34391855	      9.21977466	      2.67560002	      0.93843186	     -0.18151497	    -25.02642111	     11.59147148	     -4.79275679	     -2.80335034	     22.37668275	      2.61120909	      0.00000000	      9.91507284	     -4.18425621	      7.35686418	    -30.06037776	     19.58122634	      2.80812681	      0.00000000	    -31.53129482	      7.20696046	     -0.69195892
      6.64000000	     15.01184028	     -5.53115583	      9.05942621	      2.68139277	      0.93780435	     -0.18158623	    -25.34752840	     11.71752229	     -4.62965732	     -2.86208518	     22.42360178	      2.74726581	      0.00000000	      9.86082358	     -4.31222014	      7.63841094	    -27.88710136	     19.22810295	      2.82112576	      0.00000000	    -31.54734319	      7.32851428	     -0.39426365
